<svg xmlns="http://www.w3.org/2000/svg" xmlns:xlink="http://www.w3.org/1999/xlink" viewBox="0,0,256,256" width="45px" height="45px"><g fill="none" fill-rule="nonzero" stroke="none" stroke-width="1" stroke-linecap="butt" stroke-linejoin="miter" stroke-miterlimit="10" stroke-dasharray="" stroke-dashoffset="0" font-family="none" font-weight="none" font-size="none" text-anchor="none" style="mix-blend-mode: normal"><g transform="scale(3.76471,3.76471)"><path d="M66,60.89746c0,0.70996 -0.28992,1.3501 -0.75,1.81982c-0.46997,0.47021 -1.12,0.76025 -1.82996,0.76025h-58.84009c-1.41992,0 -2.57996,-1.16016 -2.57996,-2.58008c0,-0.70996 0.28992,-1.35986 0.76001,-1.83008c0.46997,-0.45996 1.10999,-0.75 1.81995,-0.75h58.84009c1.42993,0 2.57996,1.1499 2.57996,2.58008z" fill="#b9b9b9"></path><rect x="6.738" y="16.272" width="49.682" height="42.045" fill="#dbdbdb"></rect><path d="M18.00474,4.52734l-3.82007,16.37012h-11.59985l5,-12.85986c0.82996,-2.12012 2.86987,-3.51025 5.13989,-3.51025z" fill="#7367f0"></path><path d="M25.78033,20.89746h-11.597l3.8205,-16.375h9.05z" fill="#5049bb"></path><path d="M37.37473,20.89746h-11.58997l1.27002,-16.37012h9.05005z" fill="#7367f0"></path><path d="M48.97432,20.89746h-11.597l-1.2735,-16.375h9.05z" fill="#5049bb"></path><path d="M60.57481,20.89746h-11.6001l-3.81995,-16.37012h5.27991c2.27002,0 4.31006,1.39014 5.14014,3.51025z" fill="#7367f0"></path><path d="M14.18333,20.89746h-11.597v1.65328c0,3.20242 2.59607,5.79849 5.79849,5.79849h0.00001c3.20242,0 5.79849,-2.59607 5.79849,-5.79849z" fill="#5049bb"></path><path d="M25.78033,20.89746h-11.597v1.65328c0,3.20242 2.59607,5.79849 5.79849,5.79849h0.00001c3.20242,0 5.79849,-2.59607 5.79849,-5.79849v-1.65328z" fill="#7367f0"></path><path d="M37.37733,20.89746h-11.597v1.65328c0,3.20242 2.59607,5.79849 5.79849,5.79849h0.00001c3.20242,0 5.79849,-2.59607 5.79849,-5.79849v-1.65328z" fill="#5049bb"></path><path d="M48.97432,20.89746h-11.597v1.65328c0,3.20242 2.59607,5.79849 5.79849,5.79849h0.00001c3.20242,0 5.79849,-2.59607 5.79849,-5.79849v-1.65328z" fill="#7367f0"></path><path d="M60.57132,20.89746h-11.597v1.65328c0,3.20242 2.59608,5.79849 5.79849,5.79849h0.00002c3.20242,0 5.79849,-2.59607 5.79849,-5.79849z" fill="#5049bb"></path><g><path d="M51.24473,43.35742v14.95996h-17.83997v-14.95996c0,-1.91016 1.54993,-3.45996 3.45996,-3.45996h10.92004c1.90991,0 3.45996,1.5498 3.45996,3.45996z" fill="#565378"></path><path d="M27.37473,37.19727v11.13037c0,1.19971 -0.96997,2.16992 -2.17004,2.16992h-11.12988c-1.20007,0 -2.17004,-0.97021 -2.17004,-2.16992v-11.13037c0,-1.19971 0.96997,-2.16992 2.18005,-2.16992h11.11987c1.20007,0 2.17004,0.97021 2.17004,2.16992z" fill="#7367f0"></path></g><g fill="#5049bb"><path d="M27.37473,42.26758v1h-7.22998v7.22998h-1v-7.22998h-7.23999v-1h7.23999v-7.24023h1v7.24023z"></path></g><g fill="#7367f0"><path d="M63.90756,46.7585c0,0 -1.26727,1.61428 -2.82499,4.0357c-1.26003,1.95841 -2.70477,4.4448 -3.81755,7.03215c-0.27992,0.65086 -1.18534,0.65578 -1.47286,0.00824c-2.549,-5.74076 -6.84901,-11.07609 -6.84901,-11.07609c-0.96065,-1.42865 -1.51752,-3.14777 -1.51752,-4.99615c0,-5.29489 4.57662,-9.52449 10.00038,-8.9349c4.18113,0.44377 7.53876,3.84968 7.94233,8.03081c0.21794,2.19559 -0.36317,4.24576 -1.46078,5.90024z"></path></g><g fill="#ffffff"><circle cx="56.419" cy="41.818" r="5.483"></circle></g></g></g></svg>